<svg xmlns="http://www.w3.org/2000/svg" xmlns:xlink="http://www.w3.org/1999/xlink" xmlns:inkscape="http://www.inkscape.org/namespaces/inkscape" version="1.1" width="3" height="3" viewBox="0 0 3 3">
<path transform="matrix(1.00005,0,0,-1,2.1061555,1.3530002)" d="M.00995 0C.00995 .00548 .00548 .00995 0 .00995-.00548 .00995-.00995 .00548-.00995 0-.00995-.00548-.00548-.00995 0-.00995 .00548-.00995 .00995-.00548 .00995 0ZM0 0"/>
<path transform="matrix(1.00005,0,0,-1,2.1061555,1.3530002)" stroke-width=".3985" stroke-linecap="butt" stroke-miterlimit="10" stroke-linejoin="miter" fill="none" stroke="#000000" d="M.00995 0C.00995 .00548 .00548 .00995 0 .00995-.00548 .00995-.00995 .00548-.00995 0-.00995-.00548-.00548-.00995 0-.00995 .00548-.00995 .00995-.00548 .00995 0ZM0 0"/>
</svg>
