<svg xmlns="http://www.w3.org/2000/svg" xmlns:xlink="http://www.w3.org/1999/xlink" xmlns:inkscape="http://www.inkscape.org/namespaces/inkscape" version="1.1" width="176" height="180" viewBox="0 0 176 180">
<defs>
<path id="font_1_2" d="M.2869873 .68333438C.2869873 .6843262 .2869873 .69433596 .27398683 .69433596 .25099183 .69433596 .17799378 .6863251 .1519928 .6843262 .14399719 .68333438 .1329956 .6823273 .1329956 .6643219 .1329956 .6523285 .14199829 .6523285 .15699768 .6523285 .20498657 .6523285 .20698548 .6453247 .20698548 .6353302L.20399475 .6153412 .05899048 .039260866C.054992677 .025253296 .054992677 .023254395 .054992677 .01725769 .054992677-.0057525637 .07499695-.0107421879 .083999637-.0107421879 .09700012-.0107421879 .11199951-.0017547608 .117996219 .010253906 .12298584 .019256592 .16799927 .20431519 .17399597 .22932434 .20799256 .22631836 .2899933 .21031189 .2899933 .14428711 .2899933 .13729859 .2899933 .13328552 .2869873 .123291019 .2849884 .11128235 .2829895 .09927368 .2829895 .088272098 .2829895 .029251099 .32299806-.0107421879 .375-.0107421879 .40499879-.0107421879 .43199159 .0052490236 .45399476 .042266847 .47898866 .08627319 .48999024 .14129639 .48999024 .14329529 .48999024 .1532898 .48098756 .1532898 .47799684 .1532898 .46798707 .1532898 .46699525 .14929199 .46398927 .13528443 .44400025 .06227112 .42099 .011245728 .3769989 .011245728 .35798646 .011245728 .34498597 .022247315 .34498597 .058273317 .34498597 .07527161 .34899903 .09828186 .35299684 .11428833 .35699464 .13128662 .35699464 .13528443 .35699464 .14529419 .35699464 .21031189 .2939911 .23931885 .20899964 .2503357 .23999024 .26834107 .27198792 .30033876 .29499818 .32435609 .34298707 .37734986 .3889923 .42037965 .43798829 .42037965 .44400025 .42037965 .44499208 .42037965 .44699098 .41937257 .45899964 .41737367 .45999146 .41737367 .46798707 .4113617 .46998597 .4103546 .46998597 .40934754 .47200013 .40734864 .42399598 .4043579 .4149933 .36535646 .4149933 .35334779 .4149933 .33735658 .42599488 .31835938 .45298768 .31835938 .47898866 .31835938 .5079956 .3403473 .5079956 .37934876 .5079956 .40934754 .4850006 .4423828 .43998719 .4423828 .4119873 .4423828 .3659973 .43437196 .2939911 .35435487 .2599945 .3163452 .22099304 .27633668 .18299866 .26133729L.2869873 .68333438Z"/>
<path id="font_2_2" d="M.2939911 .64004519C.2939911 .66400149 .2939911 .6660156 .2709961 .6660156 .20899964 .60227969 .12098694 .60227969 .08898926 .60227969V.57128909C.10899353 .57128909 .16799927 .57128909 .21998596 .5972748V.07902527C.21998596 .042999269 .21699524 .0309906 .1269989 .0309906H.09498596V0C.12998963 .0029907227 .21699524 .0029907227 .25698854 .0029907227 .29699708 .0029907227 .38398744 .0029907227 .4189911 0V.0309906H.3869934C.29699708 .0309906 .2939911 .041992189 .2939911 .07902527V.64004519Z"/>
<path id="font_2_1" d="M.45999146 .31976319C.45999146 .39982606 .45498658 .47988893 .41999818 .5539398 .37399293 .65000918 .2919922 .6660156 .25 .6660156 .18998719 .6660156 .116989139 .64001467 .07598877 .54693606 .04399109 .47789 .038986207 .39982606 .038986207 .31976319 .038986207 .24472046 .042999269 .15464783 .083999637 .07859802 .1269989-.0024719239 .19999695-.022460938 .24899292-.022460938 .30299378-.022460938 .3789978-.0014648438 .4229889 .09359741 .45498658 .16265869 .45999146 .2407074 .45999146 .31976319M.24899292-.00047302247C.20999146-.00047302247 .15098572 .024551392 .1329956 .12062073 .12199402 .18066406 .12199402 .2727356 .12199402 .3317871 .12199402 .39582826 .12199402 .46188355 .12998963 .5159149 .14898682 .63500979 .22399903 .64401248 .24899292 .64401248 .28199769 .64401248 .34799195 .6259918 .36698915 .52693179 .3769989 .47088624 .3769989 .39482118 .3769989 .3317871 .3769989 .25672914 .3769989 .18867493 .3659973 .12461853 .35099793 .029556275 .2939911-.00047302247 .24899292-.00047302247Z"/>
<path id="font_3_1" d="M.5069885 .24998474C.5069885 .3710022 .4099884 .4650116 .2919922 .4650116 .17199707 .4650116 .07699585 .36799623 .07699585 .25097657 .07699585 .1299591 .17399597 .035949708 .2919922 .035949708 .4119873 .035949708 .5069885 .13296509 .5069885 .24998474M.2919922 .08496094C.19799805 .08496094 .12599182 .16096497 .12599182 .24998474 .12599182 .34300233 .19999695 .41601563 .2919922 .41601563 .38598634 .41601563 .45799256 .33999635 .45799256 .25097657 .45799256 .15795899 .38398744 .08496094 .2919922 .08496094Z"/>
<path id="font_4_97" d="M.49899293 .18579102C.49899293 .2858429 .43299867 .36791993 .34899903 .38793946L.22099304 .4189453C.15899658 .43388368 .11999512 .48773194 .11999512 .5458069 .11999512 .61595156 .17399597 .677063 .2519989 .677063 .4189911 .677063 .44099427 .5127411 .44699098 .46777345 .44799806 .461792 .44799806 .45581056 .45899964 .45581056 .47200013 .45581056 .47200013 .46080018 .47200013 .47973634V.68107607C.47200013 .69807437 .47200013 .7050781 .46099855 .7050781 .45399476 .7050781 .45298768 .70407107 .44599916 .69207766L.41099549 .63497927C.3809967 .66404727 .33999635 .7050781 .25099183 .7050781 .13999939 .7050781 .055999757 .61694338 .055999757 .5107422 .055999757 .42790223 .10899353 .35490418 .18699646 .32788087 .19799805 .32388307 .24899292 .3118744 .31900025 .29486085 .34599305 .28785707 .37599183 .280838 .4039917 .24382019 .4249878 .2177887 .43499757 .18478394 .43499757 .1517334 .43499757 .0806427 .3849945 .008529663 .30099488 .008529663 .27198792 .008529663 .19599915 .013534546 .14299011 .06260681 .084991458 .11668396 .08198547 .18078614 .08099365 .21679688 .07998657 .22679138 .07199097 .22679138 .068984989 .22679138 .055999757 .22679138 .055999757 .2197876 .055999757 .20178223V.0015258789C.055999757-.015472412 .055999757-.022460938 .066986087-.022460938 .07398987-.022460938 .07499695-.020462037 .08198547-.009475708 .08198547-.009475708 .084991458-.0054626467 .117996219 .047592164 .14898682 .013534546 .21299744-.022460938 .3019867-.022460938 .4189911-.022460938 .49899293 .07562256 .49899293 .18579102Z"/>
<path id="font_4_81" d="M.47099305 .21424866C.47099305 .34223939 .37098695 .4482422 .25 .4482422 .125 .4482422 .027999878 .3392334 .027999878 .21424866 .027999878 .085250858 .13198853-.0107421879 .24899292-.0107421879 .36999513-.0107421879 .47099305 .087249759 .47099305 .21424866M.3880005 .22224427C.3880005 .18624878 .3880005 .13224793 .3659973 .08824158 .34399415 .04324341 .2999878 .014251709 .25 .014251709 .20698548 .014251709 .16299439 .035247804 .13598633 .08125305 .11099243 .12524414 .11099243 .18624878 .11099243 .22224427 .11099243 .26124574 .11099243 .31523133 .1349945 .35923768 .1619873 .40522767 .20899964 .426239 .24899292 .426239 .29299928 .426239 .33599855 .40423585 .3619995 .36123658 .3880005 .3182373 .3880005 .26023866 .3880005 .22224427Z"/>
<path id="font_4_72" d="M.25498963 0V.0309906C.18798828 .0309906 .1769867 .0309906 .1769867 .07601929V.69433596L.032989503 .6826172V.6516113C.102996829 .6516113 .11099243 .64460757 .11099243 .5956421V.07595825C.11099243 .0309906 .099990848 .0309906 .032989503 .0309906V0L.14399719 .0029907227 .25498963 0Z"/>
<path id="font_4_109" d="M.5349884 0V.0309906C.46499635 .0309906 .45700074 .037994386 .45700074 .08705139V.4423828L.30999757 .43066407V.3996582C.37998963 .3996582 .3880005 .39266969 .3880005 .34373475V.16601563C.3880005 .07910156 .33999635 .011245728 .2669983 .011245728 .18299866 .011245728 .1789856 .058135988 .1789856 .11009216V.4423828L.03199768 .43066407V.3996582C.10998535 .3996582 .10998535 .39666749 .10998535 .3078003V.15802002C.10998535 .080093387 .10998535-.0107421879 .2619934-.0107421879 .31799317-.0107421879 .3619995 .017242432 .3909912 .07910156V-.0107421879L.5349884 0Z"/>
<path id="font_4_105" d="M.33198548 .12385559V.18066406H.30699159V.12585449C.30699159 .052108766 .2769928 .014251709 .23999024 .014251709 .17298889 .014251709 .17298889 .10491943 .17298889 .12187195V.3996582H.31599427V.43066407H.17298889V.6142578H.147995C.14698792 .5324249 .116989139 .42565919 .018997193 .42166139V.3996582H.10398865V.12408447C.10398865 .0012512207 .19699097-.0107421879 .23298645-.0107421879 .3039856-.0107421879 .33198548 .060180665 .33198548 .12408447V.12385559Z"/>
<path id="font_4_66" d="M.24699402 0V.0309906C.18099976 .0309906 .1769867 .035995485 .1769867 .075042728V.4423828L.036987306 .43066407V.3996582C.101989749 .3996582 .11099243 .3936615 .11099243 .3447113V.07595825C.11099243 .0309906 .099990848 .0309906 .032989503 .0309906V0L.14299011 .0029907227C.17799378 .0029907227 .21299744 .0009918213 .24699402 0M.19198609 .603775C.19198609 .6307678 .16899109 .6567688 .13899231 .6567688 .10499573 .6567688 .084991458 .6287689 .084991458 .603775 .084991458 .57676699 .10798645 .55078127 .13798523 .55078127 .17199707 .55078127 .19198609 .5787811 .19198609 .603775Z"/>
<path id="font_4_77" d="M.5349884 0V.0309906C.48298646 .0309906 .45799256 .0309906 .45700074 .061019899V.25221253C.45700074 .3383026 .45700074 .36932374 .42599488 .405365 .4119873 .42237855 .3789978 .4423828 .32099916 .4423828 .24798584 .4423828 .20098877 .39935304 .17298889 .33729554V.4423828L.03199768 .43066407V.3996582C.101989749 .3996582 .10998535 .39266969 .10998535 .34370423V.07595825C.10998535 .0309906 .09899902 .0309906 .03199768 .0309906V0L.14498902 .0029907227 .25698854 0V.0309906C.18998719 .0309906 .1789856 .0309906 .1789856 .07595825V.25978089C.1789856 .36431886 .25 .42037965 .31399537 .42037965 .3769989 .42037965 .3880005 .36631776 .3880005 .30926515V.076034549C.3880005 .0309906 .3769989 .0309906 .30999757 .0309906V0L.4229889 .0029907227 .5349884 0Z"/>
<path id="font_1_1" d="M.19198609 .052993776C.19198609 .08198547 .16799927 .10598755 .13899231 .10598755 .10998535 .10598755 .085998538 .08198547 .085998538 .052993776 .085998538 .023986817 .10998535 0 .13899231 0 .16799927 0 .19198609 .023986817 .19198609 .052993776Z"/>
<path id="font_4_42" d="M.6649933 .23271179C.6649933 .24272156 .6649933 .24972534 .6519928 .24972534 .6409912 .24972534 .6409912 .24372864 .6399994 .23371887 .6319885 .09059143 .5249939 .008529663 .41600038 .008529663 .35499574 .008529663 .15899658 .042556764 .15899658 .34080506 .15899658 .64004519 .35398866 .67407229 .4149933 .67407229 .5239868 .67407229 .61299136 .58299258 .6329956 .4368744 .6349945 .42286683 .6349945 .41986085 .6489868 .41986085 .6649933 .41986085 .6649933 .42286683 .6649933 .44387818V.68107607C.6649933 .69807437 .6649933 .7050781 .6539917 .7050781 .6499939 .7050781 .6459961 .7050781 .6380005 .69306948L.58799746 .61901858C.5509949 .6550598 .5 .7050781 .4039917 .7050781 .21699524 .7050781 .055999757 .5459595 .055999757 .34179688 .055999757 .1346283 .21798706-.022460938 .4039917-.022460938 .5669861-.022460938 .6649933 .116622928 .6649933 .23271179Z"/>
<path id="font_4_96" d="M.3639984 .38137818C.3639984 .41337586 .33299256 .4423828 .2899933 .4423828 .21699524 .4423828 .18099976 .37538148 .16699219 .3323822V.4423828L.027999878 .43066407V.3996582C.09799194 .3996582 .10598755 .39266969 .10598755 .34370423V.07595825C.10598755 .0309906 .09498596 .0309906 .027999878 .0309906V0L.14199829 .0029907227C.18199158 .0029907227 .22898865 .0029907227 .2689972 0V.0309906H.24798584C.17399597 .0309906 .17199707 .04197693 .17199707 .07795715V.23181153C.17199707 .33137513 .21398926 .42037965 .2899933 .42037965 .29699708 .42037965 .29899598 .42037965 .30099488 .41937257 .2979889 .41838075 .27799989 .40637208 .27799989 .3803711 .27799989 .35237123 .29899598 .33737184 .32099916 .33737184 .33898927 .33737184 .3639984 .3493805 .3639984 .38137818Z"/>
<path id="font_4_50" d="M.4149933 .11933899C.4149933 .12934876 .40699769 .13134766 .4019928 .13134766 .3929901 .13134766 .3909912 .12535095 .3889923 .11734009 .35398866 .014251709 .2639923 .014251709 .2539978 .014251709 .20399475 .014251709 .1639862 .044281007 .14099121 .08131409 .11099243 .12934876 .11099243 .19540406 .11099243 .23144531H.3899994C.4119873 .23144531 .4149933 .23144531 .4149933 .2524414 .4149933 .35131837 .36099244 .4482422 .23599243 .4482422 .11999512 .4482422 .027999878 .34532167 .027999878 .22042847 .027999878 .08631897 .1329956-.0107421879 .24798584-.0107421879 .36999513-.0107421879 .4149933 .10032654 .4149933 .11933899M.34899903 .2524414H.11199951C.117996219 .40126039 .20199585 .426239 .23599243 .426239 .33898927 .426239 .34899903 .2913971 .34899903 .2524414Z"/>
<path id="font_4_98" d="M.3600006 .12823487C.3600006 .18122864 .32998658 .21122742 .31799317 .22323609 .2849884 .25523377 .24598694 .26322938 .20399475 .27124024 .147995 .28224183 .08099365 .29522706 .08099365 .35324098 .08099365 .38822938 .10699463 .42922975 .19299317 .42922975 .30299378 .42922975 .30799867 .3392334 .30999757 .30822755 .31098939 .2992401 .32199098 .2992401 .32199098 .2992401 .33499146 .2992401 .33499146 .30422975 .33499146 .32322694V.4242401C.33499146 .4412384 .33499146 .4482422 .32398988 .4482422 .31900025 .4482422 .31698609 .4482422 .3039856 .43623353 .30099488 .43223573 .29100038 .42323304 .2869873 .42022706 .24899292 .4482422 .20799256 .4482422 .19299317 .4482422 .070999149 .4482422 .032989503 .38124085 .032989503 .3252411 .032989503 .29023744 .04899597 .26223756 .07598877 .24023438 .10798645 .2142334 .13598633 .2082367 .20799256 .19422913 .22999573 .19021607 .31199647 .17422486 .31199647 .10221863 .31199647 .051223756 .2769928 .011245728 .19898987 .011245728 .114990238 .011245728 .07899475 .068222049 .05999756 .1532135 .056991579 .16621399 .055999757 .17021179 .04598999 .17021179 .032989503 .17021179 .032989503 .16322327 .032989503 .1452179V.013214111C.032989503-.003753662 .032989503-.0107421879 .04399109-.0107421879 .04899597-.0107421879 .049987794-.009750366 .068984989 .009246826 .070999149 .011245728 .070999149 .013214111 .08898926 .032226564 .1329956-.009750366 .17799378-.0107421879 .19898987-.0107421879 .31399537-.0107421879 .3600006 .05621338 .3600006 .1282196V.12823487Z"/>
<path id="font_4_84" d="M.5209961 .21636963C.5209961 .34336854 .42399598 .4423828 .31199647 .4423828 .23399353 .4423828 .19198609 .39837647 .17199707 .3763733V.4423828L.027999878 .43066407V.3996582C.09899902 .3996582 .10598755 .3936615 .10598755 .34973146V-.117996219C.10598755-.16308594 .09498596-.16308594 .027999878-.16308594V-.1940918L.13999939-.19110108 .25299073-.1940918V-.16308594C.18598938-.16308594 .1749878-.16308594 .1749878-.117996219V.050186159 .059173585C.17999268 .04319763 .22200012-.0107421879 .2979889-.0107421879 .4169922-.0107421879 .5209961 .087127689 .5209961 .21594239V.21636963M.43798829 .21594239C.43798829 .09512329 .36799623 .011245728 .2939911 .011245728 .2539978 .011245728 .21598816 .031219483 .18899536 .07215881 .1749878 .09312439 .1749878 .09411621 .1749878 .114089969V.33674623C.20399475 .38838197 .25299073 .41737367 .3039856 .41737367 .3769989 .41737367 .43798829 .32937623 .43798829 .21636963V.21594239Z"/>
<path id="font_4_47" d="M.5269928 0V.0309906C.45700074 .0309906 .44898988 .038009645 .44898988 .0871582V.69433596L.30499269 .6826172V.6516113C.375 .6516113 .3829956 .64463809 .3829956 .59580996V.38035584C.35398866 .41636659 .31098939 .4423828 .25698854 .4423828 .13899231 .4423828 .033996583 .3443451 .033996583 .21531677 .033996583 .088272098 .13198853-.0107421879 .24598694-.0107421879 .30999757-.0107421879 .35499574 .023254395 .37998963 .055267335V-.0107421879L.5269928 0M.37998963 .117996219C.37998963 .099990848 .37998963 .09799194 .36898805 .08099365 .33898927 .033218385 .2939911 .011245728 .25099183 .011245728 .20599365 .011245728 .16999817 .037216188 .1459961 .075164798 .11999512 .1161499 .116989139 .17320252 .116989139 .21421814 .116989139 .25125123 .11898804 .31129457 .147995 .35632325 .16899109 .38734437 .20698548 .42037965 .26098634 .42037965 .29599 .42037965 .33799745 .405365 .36898805 .3603363 .37998963 .34332276 .37998963 .34132386 .37998963 .32330323V.117996219Z"/>
<path id="font_4_59" d="M.4850006 .40411378C.4850006 .42111207 .47299195 .453125 .43399049 .453125 .4139862 .453125 .36999513 .44711305 .32798768 .40611268 .28599549 .43937684 .24398804 .4423828 .22200012 .4423828 .1289978 .4423828 .05999756 .37338258 .05999756 .29638673 .05999756 .25239564 .08198547 .21440125 .10699463 .19340515 .09399414 .17840576 .07598877 .14538574 .07598877 .11035156 .07598877 .07899475 .08898926 .04083252 .11999512 .020828248 .05999756 .003829956 .027999878-.039138795 .027999878-.07911682 .027999878-.15107727 .1269989-.20605469 .24899292-.20605469 .36698915-.20605469 .47099305-.15507508 .47099305-.07711792 .47099305-.042144777 .45700074 .008834839 .4059906 .036834718 .35299684 .064834598 .29499818 .064834598 .23399353 .064834598 .20899964 .064834598 .1659851 .064834598 .15899658 .065841678 .1269989 .069885257 .10598755 .101242069 .10598755 .13334656 .10598755 .13735962 .10598755 .16040039 .12298584 .18040467 .1619873 .15240479 .20298767 .14941406 .22200012 .14941406 .31498719 .14941406 .38398744 .21839905 .38398744 .2953949 .38398744 .3323822 .36799623 .36938478 .34298707 .39237977 .3789978 .42637635 .4149933 .43138124 .43299867 .43138124 .43299867 .43112184 .43998719 .43112184 .44299317 .43011476 .43199159 .42611695 .4269867 .41513063 .4269867 .40315248 .4269867 .38616944 .43998719 .37417604 .45599366 .37417604 .46598817 .37417604 .4850006 .3811798 .4850006 .4041443V.40411378M.30899049 .29626466C.30899049 .26930238 .30799867 .2373352 .29299928 .21235657 .2849884 .20037842 .2619934 .17240906 .22200012 .17240906 .1349945 .17240906 .1349945 .2722931 .1349945 .29527284 .1349945 .3222351 .13598633 .35420228 .15098572 .3791809 .15899658 .3913269 .18199158 .41937257 .22200012 .41937257 .30899049 .41937257 .30899049 .31922914 .30899049 .29618836V.29626466M.4189911-.07911682C.4189911-.13308716 .34799195-.18305969 .25-.18305969 .14898682-.18305969 .07998657-.13209534 .07998657-.07911682 .07998657-.03314209 .117996219 .003829956 .1619873 .0068359377H.22099304C.30699159 .0068359377 .4189911 .0068359377 .4189911-.07911682Z"/>
<path id="font_4_28" d="M.48298646 .08912659V.14511109H.45799256V.08912659C.45799256 .03112793 .43299867 .025131226 .42199708 .025131226 .3889923 .025131226 .3849945 .070129398 .3849945 .07511902V.27508546C.3849945 .31707765 .3849945 .3560791 .34899903 .39312745 .30999757 .43223573 .2599945 .4482422 .21199036 .4482422 .12998963 .4482422 .06098938 .40115357 .06098938 .335083 .06098938 .30508424 .08099365 .28808595 .10699463 .28808595 .1349945 .28808595 .15299988 .30807496 .15299988 .33407594 .15299988 .3460846 .147995 .37908937 .101989749 .38008119 .1289978 .41519166 .17799378 .426239 .20999146 .426239 .25898744 .426239 .31599427 .38710023 .31599427 .29808045V.26107789C.2649994 .25808717 .19499207 .25508119 .13198853 .22509766 .056991579 .19110108 .03199768 .13911438 .03199768 .09512329 .03199768 .014251709 .1289978-.0107421879 .19198609-.0107421879 .2579956-.0107421879 .3039856 .029251099 .32299806 .07624817 .32699586 .036132814 .35398866-.005859375 .40098573-.005859375 .42199708-.005859375 .48298646 .008132935 .48298646 .08912659M.31599427 .14013672C.31599427 .04525757 .24398804 .011245728 .19898987 .011245728 .1499939 .011245728 .10899353 .04624939 .10899353 .09625244 .10899353 .15124512 .15098572 .23425293 .31599427 .24024964V.14013672Z"/>
<path id="font_4_91" d="M.5269928-.1940918V-.16308594C.45999146-.16308594 .44898988-.16308594 .44898988-.117996219V.4423828H.4269867L.3889923 .35136415C.37599183 .379364 .33499146 .4423828 .25498963 .4423828 .13899231 .4423828 .033996583 .34535218 .033996583 .21531677 .033996583 .090270999 .1309967-.0107421879 .24699402-.0107421879 .31698609-.0107421879 .35798646 .03225708 .37998963 .061264039V-.117996219C.37998963-.16308594 .36898805-.16308594 .3019867-.16308594V-.1940918L.4139862-.19110108 .5269928-.1940918M.3829956 .1362915C.3829956 .104278568 .36499024 .07626343 .34298707 .052261354 .32998658 .038253786 .2979889 .011245728 .25099183 .011245728 .17799378 .011245728 .116989139 .10028076 .116989139 .21531677 .116989139 .3343506 .18699646 .41737367 .26098634 .41737367 .34098817 .41737367 .3829956 .33035279 .3829956 .2773285V.1362915Z"/>
<path id="font_4_88" d="M.19198609 .052993776C.19198609 .08198547 .16799927 .10598755 .13899231 .10598755 .10998535 .10598755 .085998538 .08198547 .085998538 .052993776 .085998538 .023986817 .10998535 0 .13899231 0 .16799927 0 .19198609 .023986817 .19198609 .052993776Z"/>
<path id="font_4_27" d="M.71699526 0V.0309906H.69898989C.6389923 .0309906 .625 .037979127 .6139984 .07095337L.397995 .6958008C.3929901 .7088165 .3909912 .7158203 .375 .7158203 .35899354 .7158203 .35598756 .70980837 .35099793 .6958008L.14399719 .09791565C.12599182 .04698181 .085998538 .03199768 .03199768 .0309906V0L.13398743 .0029907227 .24899292 0V.0309906C.19898987 .0309906 .17399597 .05596924 .17399597 .0819397 .17399597 .08493042 .1749878 .09492493 .17599488 .09692383L.22200012 .2277832H.46899415L.5219879 .07495117C.522995 .07095337 .5249939 .064956668 .5249939 .060958864 .5249939 .0309906 .46899415 .0309906 .44198609 .0309906V0C.47799684 .0029907227 .5479889 .0029907227 .58599856 .0029907227L.71699526 0M.45799256 .25878907H.23298645L.34498597 .58380129 .45799256 .25878907Z"/>
<path id="font_4_43" d="M.4149933 .119140628C.4149933 .12911988 .40499879 .12911988 .4019928 .12911988 .3929901 .12911988 .3909912 .12512207 .3889923 .119140628 .3600006 .026229859 .29499818 .014251709 .2579956 .014251709 .20498657 .014251709 .116989139 .0572052 .116989139 .21801758 .116989139 .38093568 .19898987 .42323304 .2519989 .42323304 .26098634 .42323304 .32398988 .42222596 .35899354 .38594056 .31799317 .38293458 .31199647 .3529358 .31199647 .3399353 .31199647 .31393434 .32998658 .2939453 .35798646 .2939453 .38398744 .2939453 .4039917 .3109436 .4039917 .34094239 .4039917 .40911866 .32798768 .4482422 .25099183 .4482422 .12599182 .4482422 .033996583 .3399353 .033996583 .21601868 .033996583 .08816528 .1329956-.0107421879 .24899292-.0107421879 .3829956-.0107421879 .4149933 .10914612 .4149933 .119140628Z"/>
<path id="font_4_114" d="M.7029877 .3996582V.43066407C.68099978 .4286499 .6519928 .42765809 .6299896 .42765809L.5369873 .43066407V.3996582C.57299807 .39866639 .59498599 .38075257 .59498599 .35176087 .59498599 .34576417 .59498599 .34376527 .58999636 .33078004L.49899293 .07513428 .3999939 .35375978C.3959961 .36575318 .394989 .36775209 .394989 .37275697 .394989 .3996582 .43399049 .3996582 .45399476 .3996582V.43066407L.34999085 .42765809C.31999208 .42765809 .29100038 .4286499 .26098634 .43066407V.3996582C.2979889 .3996582 .31399537 .39767457 .32398988 .38476563 .32899476 .37875367 .33999635 .34877015 .34700013 .3297882L.26098634 .08811951 .1659851 .3547516C.16099549 .36676026 .16099549 .36875917 .16099549 .37275697 .16099549 .3996582 .19999695 .3996582 .21998596 .3996582V.43066407L.11099243 .42765809 .017990113 .43066407V.3996582C.067993167 .3996582 .07998657 .39668275 .09199524 .36476136L.21798706 .01121521C.22299195-.0027618409 .22599793-.0107421879 .23899842-.0107421879 .2519989-.0107421879 .2539978-.004760742 .25898744 .009216309L.3600006 .2918396 .46199037 .008224487C.46598817-.0027618409 .46899415-.0107421879 .48199464-.0107421879 .49499513-.0107421879 .49798585-.0017547608 .5019989 .008224487L.61898806 .3357849C.6369934 .38575746 .66799929 .39866639 .7029877 .3996582Z"/>
<path id="font_4_63" d="M.5349884 0V.0309906C.48298646 .0309906 .45799256 .0309906 .45700074 .061019899V.25221253C.45700074 .3383026 .45700074 .36932374 .42599488 .405365 .4119873 .42237855 .3789978 .4423828 .32099916 .4423828 .23699951 .4423828 .19299317 .38233949 .1769867 .34629823H.17599488V.69433596L.03199768 .6826172V.6516113C.101989749 .6516113 .10998535 .64463809 .10998535 .59580996V.076034549C.10998535 .0309906 .09899902 .0309906 .03199768 .0309906V0L.14498902 .0029907227 .25698854 0V.0309906C.18998719 .0309906 .1789856 .0309906 .1789856 .076034549V.2602234C.1789856 .36431886 .25 .42037965 .31399537 .42037965 .3769989 .42037965 .3880005 .36631776 .3880005 .30926515V.076034549C.3880005 .0309906 .3769989 .0309906 .30999757 .0309906V0L.4229889 .0029907227 .5349884 0Z"/>
<path id="font_2_3" d="M.68699648 .32714845C.70199587 .32714845 .72099307 .32714845 .72099307 .34713746 .72099307 .36714173 .70199587 .36714173 .6879883 .36714173H.08898926C.07499695 .36714173 .055999757 .36714173 .055999757 .34713746 .055999757 .32714845 .07499695 .32714845 .08999634 .32714845H.68699648M.6879883 .13284302C.70199587 .13284302 .72099307 .13284302 .72099307 .15284729 .72099307 .17285156 .70199587 .17285156 .68699648 .17285156H.08999634C.07499695 .17285156 .055999757 .17285156 .055999757 .15284729 .055999757 .13284302 .07499695 .13284302 .08898926 .13284302H.6879883Z"/>
</defs>
<path transform="matrix(1.00008,0,0,-1.00003,57.99321,75.6468)" d="M0 0 4.96077 8.59233C.2153 11.33212-5.85254 9.70622-8.59233 4.96077-9.4629 3.4529-9.92155 1.74113-9.92155 0" fill="#ffffff"/>
<path transform="matrix(1.00008,0,0,-1.00003,57.99321,75.6468)" stroke-width=".3985" stroke-linecap="butt" stroke-miterlimit="10" stroke-linejoin="miter" fill="none" stroke="#000000" d="M0 0 4.96077 8.59233C.2153 11.33212-5.85254 9.70622-8.59233 4.96077-9.4629 3.4529-9.92155 1.74113-9.92155 0"/>
<path transform="matrix(1.00008,0,0,-1.00003,57.99321,75.6468)" stroke-width=".3985" stroke-linecap="butt" stroke-miterlimit="10" stroke-linejoin="miter" fill="none" stroke="#000000" d="M-7.08669 12.27454"/>
<use data-text="k" xlink:href="#font_1_2" transform="matrix(9.963397,0,0,-9.962899,48.155427,66.831539)"/>
<path transform="matrix(1.00008,0,0,-1.00003,57.99321,75.6468)" d="M0 0H12.75597C12.75597 4.55673 10.32423 8.76865 6.37798 11.04701" fill="#ffffff"/>
<path transform="matrix(1.00008,0,0,-1.00003,57.99321,75.6468)" stroke-width=".3985" stroke-linecap="butt" stroke-miterlimit="10" stroke-linejoin="miter" fill="none" stroke="#000000" d="M0 0H12.75597C12.75597 4.55673 10.32423 8.76865 6.37798 11.04701"/>
<path transform="matrix(1.00008,0,0,-1.00003,57.99321,75.6468)" d="M0 0H-14.17339C-14.17339-5.06305-11.47144-9.74301-7.08669-12.27454" fill="#ffffff"/>
<path transform="matrix(1.00008,0,0,-1.00003,57.99321,75.6468)" stroke-width=".3985" stroke-linecap="butt" stroke-miterlimit="10" stroke-linejoin="miter" fill="none" stroke="#000000" d="M0 0H-14.17339C-14.17339-5.06305-11.47144-9.74301-7.08669-12.27454"/>
<path transform="matrix(1.00008,0,0,-1.00003,57.99321,75.6468)" d="M0 0-5.66927-9.81949C-.24605-12.95058 6.68839-11.09248 9.81949-5.66927 10.81438-3.94604 11.33855-1.98979 11.33855 0" fill="#ffffff"/>
<path transform="matrix(1.00008,0,0,-1.00003,57.99321,75.6468)" stroke-width=".3985" stroke-linecap="butt" stroke-miterlimit="10" stroke-linejoin="miter" fill="none" stroke="#000000" d="M0 0-5.66927-9.81949C-.24605-12.95058 6.68839-11.09248 9.81949-5.66927 10.81438-3.94604 11.33855-1.98979 11.33855 0"/>
<path transform="matrix(1.00008,0,0,-1.00003,57.99321,75.6468)" d="M28.3468 49.09825H17.00826C17.00826 45.04787 19.1698 41.30396 22.67754 39.27876" fill="#ffffff"/>
<path transform="matrix(1.00008,0,0,-1.00003,57.99321,75.6468)" stroke-width=".3985" stroke-linecap="butt" stroke-miterlimit="10" stroke-linejoin="miter" fill="none" stroke="#000000" d="M28.3468 49.09825H17.00826C17.00826 45.04787 19.1698 41.30396 22.67754 39.27876"/>
<path transform="matrix(1.00008,0,0,-1.00003,57.99321,75.6468)" d="M28.3468 49.09825 24.09474 41.73344C28.16226 39.38509 33.36322 40.77867 35.7116 44.84619 36.4578 46.13864 36.85092 47.60585 36.85092 49.09825" fill="#ffffff"/>
<path transform="matrix(1.00008,0,0,-1.00003,57.99321,75.6468)" stroke-width=".3985" stroke-linecap="butt" stroke-miterlimit="10" stroke-linejoin="miter" fill="none" stroke="#000000" d="M28.3468 49.09825 24.09474 41.73344C28.16226 39.38509 33.36322 40.77867 35.7116 44.84619 36.4578 46.13864 36.85092 47.60585 36.85092 49.09825"/>
<path transform="matrix(1.00008,0,0,-1.00003,57.99321,75.6468)" stroke-width=".3985" stroke-linecap="butt" stroke-miterlimit="10" stroke-linejoin="miter" fill="none" stroke="#ffffff" d="M28.3468 49.09825H41.10278C41.10278 53.65498 38.67105 57.8669 34.7248 60.14526"/>
<path transform="matrix(1.00008,0,0,-1.00003,57.99321,75.6468)" d="M28.3468 49.09825 32.59886 56.46304C28.53134 58.81142 23.33038 57.41782 20.98201 53.3503 20.23582 52.05786 19.84268 50.59064 19.84268 49.09825" fill="#ffffff"/>
<path transform="matrix(1.00008,0,0,-1.00003,57.99321,75.6468)" stroke-width=".3985" stroke-linecap="butt" stroke-miterlimit="10" stroke-linejoin="miter" fill="none" stroke="#000000" d="M28.3468 49.09825 32.59886 56.46304C28.53134 58.81142 23.33038 57.41782 20.98201 53.3503 20.23582 52.05786 19.84268 50.59064 19.84268 49.09825"/>
<path transform="matrix(1.00008,0,0,-1.00003,57.99321,75.6468)" stroke-width=".3985" stroke-linecap="butt" stroke-miterlimit="10" stroke-linejoin="miter" fill="none" stroke="#000000" d="M21.26012 61.3728"/>
<use data-text="1" xlink:href="#font_2_2" transform="matrix(9.963397,0,0,-9.962899,69.49213,17.702057)"/>
<use data-text="1" xlink:href="#font_2_2" transform="matrix(9.963397,0,0,-9.962899,74.473819,17.702057)"/>
<use data-text="0" xlink:href="#font_2_1" transform="matrix(9.963397,0,0,-9.962899,79.455509,17.702057)"/>
<use data-text="&#x25e6;" xlink:href="#font_3_1" transform="matrix(6.974358,0,0,-6.9740097,84.43732,14.086945)"/>
<path transform="matrix(1.00008,0,0,-1.00003,57.99321,75.6468)" stroke-width=".79701" stroke-linecap="butt" stroke-miterlimit="10" stroke-linejoin="miter" fill="none" stroke="#000000" d="M-14.17339-24.5491 42.52022 73.64738"/>
<path transform="matrix(1.00008,0,0,-1.00003,57.99321,75.6468)" stroke-width=".79701" stroke-linecap="butt" stroke-miterlimit="10" stroke-linejoin="miter" fill="none" stroke="#000000" d="M-56.69362 0H85.04042"/>
<path transform="matrix(1.00008,0,0,-1.00003,57.99321,75.6468)" stroke-width=".79701" stroke-linecap="butt" stroke-miterlimit="10" stroke-linejoin="miter" fill="none" stroke="#000000" d="M-56.69362 49.09825H85.04042"/>
<path transform="matrix(1.00008,0,0,-1.00003,57.99321,75.6468)" stroke-width=".79701" stroke-linecap="butt" stroke-miterlimit="10" stroke-linejoin="miter" fill="none" stroke="#000000" d=""/>
<path transform="matrix(1.00008,0,0,-1.00003,57.99321,75.6468)" d="M118.38858-32.64876H-52.31001C-54.51096-32.64876-56.29512-34.43292-56.29512-36.63387V-103.06558C-56.29512-105.26651-54.51096-107.05069-52.31001-107.05069H118.38858C120.58952-107.05069 122.37369-105.26651 122.37369-103.06558V-36.63387C122.37369-34.43292 120.58952-32.64876 118.38858-32.64876ZM-56.29512-107.05069" fill="#ffffff"/>
<use data-text="S" xlink:href="#font_4_97" transform="matrix(9.963397,0,0,-9.962899,71.65129,124.54727)" fill="#ff0000"/>
<use data-text="o" xlink:href="#font_4_81" transform="matrix(9.963397,0,0,-9.962899,77.19093,124.54727)" fill="#ff0000"/>
<use data-text="l" xlink:href="#font_4_72" transform="matrix(9.963397,0,0,-9.962899,82.17262,124.54727)" fill="#ff0000"/>
<use data-text="u" xlink:href="#font_4_109" transform="matrix(9.963397,0,0,-9.962899,84.94246,124.54727)" fill="#ff0000"/>
<use data-text="t" xlink:href="#font_4_105" transform="matrix(9.963397,0,0,-9.962899,90.4821,124.54727)" fill="#ff0000"/>
<use data-text="i" xlink:href="#font_4_66" transform="matrix(9.963397,0,0,-9.962899,94.357868,124.54727)" fill="#ff0000"/>
<use data-text="o" xlink:href="#font_4_81" transform="matrix(9.963397,0,0,-9.962899,97.1277,124.54727)" fill="#ff0000"/>
<use data-text="n" xlink:href="#font_4_77" transform="matrix(9.963397,0,0,-9.962899,102.10939,124.54727)" fill="#ff0000"/>
<use data-text="." xlink:href="#font_1_1" transform="matrix(9.963397,0,0,-9.962899,107.649188,124.54727)"/>
<use data-text="C" xlink:href="#font_4_42" transform="matrix(9.963397,0,0,-9.962899,5.9880526,142.47982)"/>
<use data-text="o" xlink:href="#font_4_81" transform="matrix(9.963397,0,0,-9.962899,13.181625,142.47982)"/>
<use data-text="r" xlink:href="#font_4_96" transform="matrix(9.963397,0,0,-9.962899,18.163315,142.47982)"/>
<use data-text="r" xlink:href="#font_4_96" transform="matrix(9.963397,0,0,-9.962899,22.068955,142.47982)"/>
<use data-text="e" xlink:href="#font_4_50" transform="matrix(9.963397,0,0,-9.962899,25.97461,142.47982)"/>
<use data-text="s" xlink:href="#font_4_98" transform="matrix(9.963397,0,0,-9.962899,30.398362,142.47982)"/>
<use data-text="p" xlink:href="#font_4_84" transform="matrix(9.963397,0,0,-9.962899,34.32393,142.47982)"/>
<use data-text="o" xlink:href="#font_4_81" transform="matrix(9.963397,0,0,-9.962899,40.142549,142.47982)"/>
<use data-text="n" xlink:href="#font_4_77" transform="matrix(9.963397,0,0,-9.962899,45.124238,142.47982)"/>
<use data-text="d" xlink:href="#font_4_47" transform="matrix(9.963397,0,0,-9.962899,50.66388,142.47982)"/>
<use data-text="i" xlink:href="#font_4_66" transform="matrix(9.963397,0,0,-9.962899,56.20352,142.47982)"/>
<use data-text="n" xlink:href="#font_4_77" transform="matrix(9.963397,0,0,-9.962899,58.97336,142.47982)"/>
<use data-text="g" xlink:href="#font_4_59" transform="matrix(9.963397,0,0,-9.962899,64.513,142.47982)"/>
<use data-text="a" xlink:href="#font_4_28" transform="matrix(9.963397,0,0,-9.962899,72.8125,142.47982)"/>
<use data-text="n" xlink:href="#font_4_77" transform="matrix(9.963397,0,0,-9.962899,77.79419,142.47982)"/>
<use data-text="g" xlink:href="#font_4_59" transform="matrix(9.963397,0,0,-9.962899,83.33383,142.47982)"/>
<use data-text="l" xlink:href="#font_4_72" transform="matrix(9.963397,0,0,-9.962899,88.31552,142.47982)"/>
<use data-text="e" xlink:href="#font_4_50" transform="matrix(9.963397,0,0,-9.962899,91.08536,142.47982)"/>
<use data-text="s" xlink:href="#font_4_98" transform="matrix(9.963397,0,0,-9.962899,95.50911,142.47982)"/>
<use data-text="a" xlink:href="#font_4_28" transform="matrix(9.963397,0,0,-9.962899,102.7525,142.47982)"/>
<use data-text="r" xlink:href="#font_4_96" transform="matrix(9.963397,0,0,-9.962899,107.73419,142.47982)"/>
<use data-text="e" xlink:href="#font_4_50" transform="matrix(9.963397,0,0,-9.962899,111.63985,142.47982)"/>
<use data-text="e" xlink:href="#font_4_50" transform="matrix(9.963397,0,0,-9.962899,119.38141,142.47982)"/>
<use data-text="q" xlink:href="#font_4_91" transform="matrix(9.963397,0,0,-9.962899,123.80516,142.47982)"/>
<use data-text="u" xlink:href="#font_4_109" transform="matrix(9.963397,0,0,-9.962899,129.06581,142.47982)"/>
<use data-text="a" xlink:href="#font_4_28" transform="matrix(9.963397,0,0,-9.962899,134.60549,142.47982)"/>
<use data-text="l" xlink:href="#font_4_72" transform="matrix(9.963397,0,0,-9.962899,139.58718,142.47982)"/>
<use data-text="." xlink:href="#font_4_88" transform="matrix(9.963397,0,0,-9.962899,142.35698,142.47982)"/>
<use data-text="A" xlink:href="#font_4_27" transform="matrix(9.963397,0,0,-9.962899,150.1085,142.47982)"/>
<use data-text="n" xlink:href="#font_4_77" transform="matrix(9.963397,0,0,-9.962899,157.58104,142.47982)"/>
<use data-text="g" xlink:href="#font_4_59" transform="matrix(9.963397,0,0,-9.962899,163.12071,142.47982)"/>
<use data-text="l" xlink:href="#font_4_72" transform="matrix(9.963397,0,0,-9.962899,168.1024,142.47982)"/>
<use data-text="e" xlink:href="#font_4_50" transform="matrix(9.963397,0,0,-9.962899,170.87221,142.47982)"/>
<use data-text="k" xlink:href="#font_1_2" transform="matrix(9.963397,0,0,-9.962899,5.9880526,154.43618)"/>
<use data-text="c" xlink:href="#font_4_43" transform="matrix(9.963397,0,0,-9.962899,14.809753,154.43618)"/>
<use data-text="o" xlink:href="#font_4_81" transform="matrix(9.963397,0,0,-9.962899,19.233506,154.43618)"/>
<use data-text="r" xlink:href="#font_4_96" transform="matrix(9.963397,0,0,-9.962899,24.215195,154.43618)"/>
<use data-text="r" xlink:href="#font_4_96" transform="matrix(9.963397,0,0,-9.962899,28.12085,154.43618)"/>
<use data-text="e" xlink:href="#font_4_50" transform="matrix(9.963397,0,0,-9.962899,32.02649,154.43618)"/>
<use data-text="s" xlink:href="#font_4_98" transform="matrix(9.963397,0,0,-9.962899,36.450258,154.43618)"/>
<use data-text="p" xlink:href="#font_4_84" transform="matrix(9.963397,0,0,-9.962899,40.375825,154.43618)"/>
<use data-text="o" xlink:href="#font_4_81" transform="matrix(9.963397,0,0,-9.962899,46.184495,154.43618)"/>
<use data-text="n" xlink:href="#font_4_77" transform="matrix(9.963397,0,0,-9.962899,51.166185,154.43618)"/>
<use data-text="d" xlink:href="#font_4_47" transform="matrix(9.963397,0,0,-9.962899,56.705827,154.43618)"/>
<use data-text="s" xlink:href="#font_4_98" transform="matrix(9.963397,0,0,-9.962899,62.24547,154.43618)"/>
<use data-text="w" xlink:href="#font_4_114" transform="matrix(9.963397,0,0,-9.962899,69.498828,154.43618)"/>
<use data-text="i" xlink:href="#font_4_66" transform="matrix(9.963397,0,0,-9.962899,76.69238,154.43618)"/>
<use data-text="t" xlink:href="#font_4_105" transform="matrix(9.963397,0,0,-9.962899,79.46222,154.43618)"/>
<use data-text="h" xlink:href="#font_4_63" transform="matrix(9.963397,0,0,-9.962899,83.33798,154.43618)"/>
<use data-text="1" xlink:href="#font_2_2" transform="matrix(9.963397,0,0,-9.962899,92.20195,154.43618)"/>
<use data-text="1" xlink:href="#font_2_2" transform="matrix(9.963397,0,0,-9.962899,97.18364,154.43618)"/>
<use data-text="0" xlink:href="#font_2_1" transform="matrix(9.963397,0,0,-9.962899,102.16533,154.43618)"/>
<use data-text="&#x25e6;" xlink:href="#font_3_1" transform="matrix(6.974358,0,0,-6.9740097,107.14714,150.82006)"/>
<use data-text="A" xlink:href="#font_4_27" transform="matrix(9.963397,0,0,-9.962899,56.240068,176.35384)"/>
<use data-text="n" xlink:href="#font_4_77" transform="matrix(9.963397,0,0,-9.962899,63.712617,176.35384)"/>
<use data-text="g" xlink:href="#font_4_59" transform="matrix(9.963397,0,0,-9.962899,69.25226,176.35384)"/>
<use data-text="l" xlink:href="#font_4_72" transform="matrix(9.963397,0,0,-9.962899,74.23396,176.35384)"/>
<use data-text="e" xlink:href="#font_4_50" transform="matrix(9.963397,0,0,-9.962899,77.003787,176.35384)"/>
<use data-text="k" xlink:href="#font_1_2" transform="matrix(9.963397,0,0,-9.962899,84.74835,176.35384)"/>
<use data-text="=" xlink:href="#font_2_3" transform="matrix(9.963397,0,0,-9.962899,93.01601,176.35384)"/>
<use data-text="1" xlink:href="#font_2_2" transform="matrix(9.963397,0,0,-9.962899,103.517429,176.35384)"/>
<use data-text="1" xlink:href="#font_2_2" transform="matrix(9.963397,0,0,-9.962899,108.499118,176.35384)"/>
<use data-text="0" xlink:href="#font_2_1" transform="matrix(9.963397,0,0,-9.962899,113.480808,176.35384)"/>
<use data-text="&#x25e6;" xlink:href="#font_3_1" transform="matrix(6.974358,0,0,-6.9740097,118.47803,172.2407)"/>
<use data-text="." xlink:href="#font_4_88" transform="matrix(9.963397,0,0,-9.962899,123.058399,176.35384)"/>
</svg>
